<?xml version="1.0" encoding="utf-8"?>
<!-- Generator: Adobe Illustrator 26.0.1, SVG Export Plug-In . SVG Version: 6.00 Build 0)  -->
<svg version="1.1" id="Layer_1" xmlns="http://www.w3.org/2000/svg" xmlns:xlink="http://www.w3.org/1999/xlink" x="0px" y="0px"
	 viewBox="0 0 1100 764" style="enable-background:new 0 0 1100 764;" xml:space="preserve">
<style type="text/css">
	.st0{fill:#6D28D9;}
</style>
<g>
	<path class="st0" d="M559.7,387c0-2.5,0-2.5-2.5-2.7c-4.3-0.4-8.7-1-13-1.3c-2.6-0.2-5.2-1-7.7,0.2c-3.3,1.6-6.6,3.2-9.9,4.7
		c-0.6,0.3-1.1,0.7-1.1,1.4c0,1.5,0,2.9,0.1,4.4c0,0.8,0.3,1.5,1.4,1.6c0.8,0.1,1.2,0.5,1.2,1.4v18.4c9.6-3.4,19.4-6.3,29.1-9.4
		c2-0.7,2.5-1.2,2.5-3.3C559.8,397.2,559.8,392.1,559.7,387z M535.7,398.6c-0.1,1.1-1.2,1.1-1.9,1.1c-0.9,0-0.5-0.9-0.5-1.4
		c-0.1-0.5,0-1,0-1.4c0,0,0,0,0,0c0-0.6,0-1.2,0-1.7c0-1,1.1-1.9,2-1.8c0.4,0,0.3,0.3,0.3,0.5C536,395.5,535.9,397.1,535.7,398.6z
		 M549.2,398.5c-1,0.4-2.2,0.1-3.3-0.1c-0.3-0.1-0.6-0.2-0.6-0.5c-0.2-1.4-0.2-2.8,0-4.2c0-0.3,0.3-0.4,0.5-0.5c0.1,0,0.3,0,0.4,0
		c2.8-0.2,3.3,0.1,3.3,3.1C549.3,397,549.9,398.2,549.2,398.5z M553.7,399.1c-0.2-0.1-0.5-0.3-0.5-0.5c-0.2-1.4-0.2-2.8,0-4.2
		c0.1-0.4,0.4-0.7,0.9-0.6c0.9,0.1,1.7,0.2,2.6,0.3c0.4,0.1,0.6,0.5,0.6,0.9c0,0.6,0,1.2,0,1.7C557.3,399.4,556.2,400.2,553.7,399.1
		z"/>
	<path class="st0" d="M522.4,422.9c0-1.8,1-2.4,2.4-2.9c5.2-1.8,10.4-3.7,15.7-5.4c6.2-2,12.4-3.9,18.6-5.9c2.7-0.9,4.4-2.7,5-5.5
		c0.3-1.7,1.4-2.8,3.1-3.4c13.3-4.5,26.7-8.4,40.6-10.4c6.6-1,13.2-0.9,19.8-0.5c2.5,0.2,4.9,0.4,7.3,1c2.7,0.7,2.8,0.9,2,3.5
		c-1.8,6.2-4.6,11.9-7.9,17.4c-3.3,5.4-7,10.5-9.9,16.1c-1.4,2.6-2.6,5.3-3.4,8.2c-0.2,0.7-0.3,1.2-1.1,0.6
		c-3.1-2.3-6.7-2.9-10.4-3.2c-10.5-0.8-20.6,1.5-30.7,4.4c-8,2.3-15.9,5.1-24.2,6.4c-5.8,0.9-11.6,1.2-17.4-0.1
		c-1.1-0.3-1.9-0.8-2.5-1.8c-3.2-5.6-5.7-11.4-6.8-17.7C522.5,423.5,522.4,423.1,522.4,422.9z"/>
	<path class="st0" d="M614.2,449.5c-0.4,2.2-0.9,4.4-1.4,6.5c-0.1,0.3-0.1,0.7-0.1,1c-2.1,2.9-5.7,5-10,6h-6.9
		c-2.7,0-5.3-0.5-7.8-1.3c0,0-0.1,0-0.1,0c-2-0.7-4-1.1-6.1-1.2c-5.3-0.3-10.5,0.8-15.8,1.6c-5.3,0.8-10.7,1.5-16.1,1.3
		c-8.4-0.3-16.5-2-23.8-6.3c-5-3-8.7-7.2-11.1-12.5c-0.2-0.5-0.4-1-0.6-1.5c0-0.1,0-0.3,0-0.4c0.2-0.2,0.4-0.1,0.6,0.1
		c5.3,4.4,11.6,6.3,18.3,7.2c13.1,1.7,25.4-1.5,37.5-6c6.2-2.3,12.4-4.6,18.9-5.7c5.4-1,10.8-1.3,16.2-0.2c1.9,0.4,3.7,1,5.2,2.2
		c0.8,0.6,1.4,1.2,1.9,1.8C614.6,444.1,614.7,446.7,614.2,449.5z"/>
	<path class="st0" d="M562.6,387.7c0-2.6,0-5.2,0-7.9c0-1.1,0.3-1.8,1.5-2c3.6-0.8,7.2-1.6,10.8-2.5c1.1-0.3,1.5,0.1,1.5,1.2
		c0,5,0,10,0,15c0,0.9-0.3,1.4-1.2,1.7c-3.7,1.2-7.4,2.4-11.1,3.7c-1.2,0.4-1.6,0.1-1.6-1.2C562.6,393.1,562.6,390.4,562.6,387.7
		C562.6,387.7,562.6,387.7,562.6,387.7z"/>
	<path class="st0" d="M578.6,365c0-1.8,0-3.6,0-5.4c0-1.2,0.3-1.8,1.7-1.6c4.1,0.5,8.1,1.1,12.1,1.8c0.9,0.1,1.2,0.6,1.2,1.5
		c0,3.8,0,7.7,0,11.5c0,1.1-0.5,1.4-1.6,1.3c-3.9-0.6-7.8-1.1-11.7-1.6c-1.3-0.2-1.8-0.7-1.8-2.1C578.7,368.6,578.6,366.8,578.6,365
		C578.6,365,578.6,365,578.6,365z"/>
	<path class="st0" d="M578.6,383.6c0-2.3,0-4.7,0-7c0-0.9,0.4-1.4,1.3-1.3c4.2,0.5,8.5,1.1,12.7,1.6c0.9,0.1,1.2,0.5,1.2,1.4
		c0,2.9,0,5.8,0,8.7c0,0.8-0.3,1.2-1.1,1.4c-4.1,1.1-8.3,2.2-12.4,3.2c-1.5,0.4-1.7,0.3-1.7-1.3
		C578.6,388.2,578.6,385.9,578.6,383.6z"/>
	<path class="st0" d="M562.6,368.5c0-1.9,0-3.8,0-5.7c0-0.9,0.3-1.3,1.2-1.6c3.5-0.9,7-1.9,10.5-2.8c1.7-0.4,1.8-0.3,1.8,1.5
		c0,3.5-0.1,7,0.2,10.5c0.1,1.3-0.3,1.9-1.7,2.2c-3.5,0.8-6.9,1.7-10.3,2.5c-1.6,0.4-1.8,0.3-1.8-1.4
		C562.6,372,562.6,370.2,562.6,368.5z"/>
	<path class="st0" d="M596.1,367.7c0-1.9,0-3.9,0-5.8c0-0.9,0.3-1.3,1.3-1.2c3.6,0.5,7.1,1.2,10.6,2c0.7,0.2,1.1,0.6,1,1.3
		c-0.1,3.7-0.2,7.5-0.3,11.2c0,0.8-0.5,1.1-1.2,1c-3.5-0.5-7-0.9-10.5-1.4c-0.9-0.1-0.9-0.8-0.9-1.4
		C596.1,371.5,596.1,369.6,596.1,367.7z"/>
	<path class="st0" d="M552.4,374.6c0,1.7,0,3.4,0,5.1c0,0.9-0.3,1.4-1.3,1.3c-2.5-0.2-5-0.4-7.5-0.6c-0.6,0-0.8-0.4-0.9-1
		c-0.4-3.3-0.2-6.7-0.2-10c0-0.9,0.6-1.3,1.3-1.5c2.5-0.7,5.1-0.6,7.6,0c0.8,0.2,0.9,0.9,0.9,1.6
		C552.4,371.2,552.4,372.9,552.4,374.6z"/>
	<path class="st0" d="M596.4,382.7c0-1.2,0-2.4,0-3.6c0-1,0.4-1.6,1.5-1.4c3.4,0.5,6.8,1,10.2,1.4c0.7,0.1,0.9,0.4,1,1.1
		c0,0.1,0,0.2,0,0.3c0.3,4.8,0.3,4.7-4.4,5.6c-2.3,0.4-4.6,0.9-6.8,1.4c-1.1,0.2-1.4-0.1-1.4-1.1
		C596.4,385.1,596.4,383.9,596.4,382.7z"/>
	<path class="st0" d="M614.4,452.9c-0.2,1.5-0.9,2.9-1.8,4.1c-2.1,2.9-5.7,5-10,6c-4.4,1-9.6,0.8-14.6-1.3c0,0,0,0-0.1,0
		c-12.3-5-20.3-5-21.5-5c-1.2,0,15.5-6.4,15.5-6.4l7.7-1.2l23.4-7.2c0,0,0,0,0,0C613.2,442.1,615.8,444.5,614.4,452.9z"/>
	<path class="st0" d="M580.2,346.3c0.7,0,1.2-0.7,0.9-1.3c-2-5.3-4.2-10.5-6.3-15.8c-4.7-11.5-9.4-23.1-14-34.7
		c-0.6-1.4-1.3-1.9-3.5-1.5c-8.7,1.3-17.6,0.7-26.4-0.1c-1.5-0.1-2.2,0.3-2.7,1.4c-1.3,3.3-2.7,6.6-4.1,10
		c-5.7,14.2-11.3,28.3-17,42.5c-5.9,14.7-11.9,29.3-17.8,44c-6.2,15.4-12,30.9-18.5,46.1c-2.4,5.7-8.7,19.2-11.4,24.8
		c-0.6,1.2-1.2,2.3-1.9,3.3h31.8c0.1-0.5,0.2-0.9,0.4-1.4c1.6-4.6,4.6-11.8,7.5-18.5l0,0l15.8-39.3c0-0.3,0.1-0.7,0.3-1.2
		c0.1-0.3,0.2-0.6,0.4-1c2.4-6,4.7-11.9,7.1-17.9c6.6-16.8,13.1-33.6,19.7-50.3c1.1-2.7,2.2-5.4,3.3-8.2c0.6,0.5,0.7,1.1,0.9,1.5
		c2.2,5.6,4.4,11.3,6.5,16.9c0.1,0.4,0.5,0.6,0.9,0.6H580.2z"/>
	<polygon class="st0" points="531,292.9 557.3,292.9 558.5,297.2 558.5,298.5 549.5,303.6 542.7,305.8 539.2,307.2 	"/>
</g>
</svg>
