<svg xmlns="http://www.w3.org/2000/svg" width="118" height="24" viewBox="0 0 118 24" fill="none">
  <g transform="translate(0.75 0.75)">
    <path fill="#F5F5F5" fill-rule="evenodd" d="M11.25 0 21.39 5.86 21.39 17.57 11.25 23.43 1.11 17.57 1.11 5.86 11.25 0ZM11.25 2.81 3.54 7.26 3.54 16.16 11.25 20.62 18.96 16.16 18.96 7.26 11.25 2.81Z" clip-rule="evenodd"/>
    <path fill="#F5F5F5" fill-rule="evenodd" d="M11.25 4.74 17.29 8.23 17.29 15.21 11.25 18.69 5.21 15.21 5.21 8.23 11.25 4.74ZM11.25 7.35 7.48 9.53 7.48 13.9 11.25 16.08 15.02 13.9 15.02 9.53 11.25 7.35Z" clip-rule="evenodd"/>
    <path fill="#F5F5F5" d="M21.43 11.72C21.43 5.33 16.77.37 10.67.37c1.79.11 3.34.77 4.98 1.72 1.54.89 3.12 1.8 4.14 3.39 1.02 1.58 1.04 3.41 1.06 5.18.02 1.89.04 3.67 1.02 5.16.17.25.36.5.57.73-.09.4-.17.78-.31 1.17-.36.98-1 1.78-1.79 2.34.71-1.25.7-2.64.69-4.06-.01-1.53-.03-3.12-.93-4.53-.9-1.41-2.29-2.21-3.63-2.98-1.41-.81-2.75-1.58-3.62-2.94-.87-1.36-.92-2.9-.98-4.55l-.01-.34c-.22-.02-.44-.03-.67-.03C5.7.37 1.07 5.33 1.07 11.72c0 6.48 4.74 11.35 10.18 11.35 5.44 0 10.18-4.87 10.18-11.35Z" opacity=".12"/>
  </g>
  <text x="29" y="15.8" fill="#F5F5F5" font-family="-apple-system, BlinkMacSystemFont, 'Segoe UI', sans-serif" font-size="15" font-weight="700">Graphite</text>
</svg>
